<?xml version="1.0" encoding="UTF-8"?>
<svg id="_图层_2" data-name="图层 2" xmlns="http://www.w3.org/2000/svg" viewBox="0 0 400 400">
  <defs>
    <style>
      .cls-1 {
        fill: #6b6b70;
      }

      .cls-1, .hBtn_2 {
        stroke-width: 0px;
      }

      .hBtn_2 {
        fill: #18181b;
        opacity: 0;
      }
    </style>
  </defs>
  <g id="NodeAlignPro">
    <g>
      <rect class="hBtn_2" width="400" height="400" rx="50" ry="50"/>
      <g>
        <path class="cls-1" d="M325,62.5c6.9,0,12.5,5.6,12.5,12.5v112.5c0,44-32.62,80.5-75,86.5v-12.1c0-7.5,4.83-13.86,11.74-16.77,22.46-9.45,38.26-31.71,38.26-57.63v-95.24c0-1.93-1.82-3.45-3.7-3.03-33.55,7.45-58.8,37.46-58.8,73.27v175h-25v-175c0-55.23,44.77-100,100-100h0Z"/>
        <path class="cls-1" d="M87.5,253.97v83.53s25,0,25,0v-61.13c0-1.89-.9-3.64-2.4-4.8-7.08-5.49-13.4-11.79-18.9-18.81-1.24-1.58-3.7-.79-3.7,1.21Z"/>
        <path class="cls-1" d="M100,62.5h0c-6.9,0-12.5,5.6-12.5,12.5v112.5c0,23.75,9.5,45.37,25,61.12,13.13,13.5,30.5,22.62,50,25.37v-12.1c0-7.5-4.83-13.86-11.74-16.77-22.46-9.45-38.26-31.71-38.26-57.63v-95.24c0-1.93,1.82-3.45,3.7-3.03,33.55,7.45,58.8,37.46,58.8,73.27v175s25,0,25,0v-175c0-55.23-44.77-100-100-100Z"/>
      </g>
    </g>
  </g>
</svg>